<svg width="33" height="33" viewBox="0 0 33 33" fill="none" xmlns="http://www.w3.org/2000/svg">
<path d="M13.3125 32.4844C12.4167 32.4844 11.6562 32.1719 11.0312 31.5469C10.4062 30.9219 10.0938 30.1719 10.0938 29.2969C10.0938 28.401 10.4062 27.6406 11.0312 27.0156C11.6562 26.3906 12.4167 26.0781 13.3125 26.0781C14.1875 26.0781 14.9375 26.3906 15.5625 27.0156C16.1875 27.6406 16.5 28.401 16.5 29.2969C16.5 30.1719 16.1875 30.9219 15.5625 31.5469C14.9375 32.1719 14.1875 32.4844 13.3125 32.4844ZM13.3125 27.7031C12.8542 27.7031 12.4688 27.8594 12.1562 28.1719C11.8438 28.4844 11.6875 28.8594 11.6875 29.2969C11.6875 29.7344 11.8438 30.1094 12.1562 30.4219C12.4688 30.7344 12.8542 30.8906 13.3125 30.8906C13.75 30.8906 14.125 30.7344 14.4375 30.4219C14.75 30.1094 14.9062 29.7344 14.9062 29.2969C14.9062 28.8594 14.75 28.4844 14.4375 28.1719C14.125 27.8594 13.75 27.7031 13.3125 27.7031ZM24.5 32.4844C23.625 32.4844 22.875 32.1719 22.25 31.5469C21.625 30.9219 21.3125 30.1719 21.3125 29.2969C21.3125 28.401 21.625 27.6406 22.25 27.0156C22.875 26.3906 23.625 26.0781 24.5 26.0781C25.375 26.0781 26.125 26.3906 26.75 27.0156C27.375 27.6406 27.6875 28.401 27.6875 29.2969C27.6875 30.1719 27.375 30.9219 26.75 31.5469C26.125 32.1719 25.375 32.4844 24.5 32.4844ZM24.5 27.7031C24.0625 27.7031 23.6875 27.8594 23.375 28.1719C23.0625 28.4844 22.9062 28.8594 22.9062 29.2969C22.9062 29.7344 23.0625 30.1094 23.375 30.4219C23.6875 30.7344 24.0625 30.8906 24.5 30.8906C24.9375 30.8906 25.3125 30.7344 25.625 30.4219C25.9375 30.1094 26.0938 29.7344 26.0938 29.2969C26.0938 28.8594 25.9375 28.4844 25.625 28.1719C25.3125 27.8594 24.9375 27.7031 24.5 27.7031ZM28.5625 7.64062C28.3542 7.41146 28.1094 7.22917 27.8281 7.09375C27.5469 6.95833 27.2396 6.89062 26.9062 6.89062H7.3125L7.15625 5.92188C7.05208 5.29688 6.74479 4.77083 6.23438 4.34375C5.72396 3.91667 5.14583 3.70312 4.5 3.70312H2.90625C2.67708 3.70312 2.48438 3.78125 2.32812 3.9375C2.17188 4.09375 2.09375 4.27604 2.09375 4.48438C2.09375 4.71354 2.17188 4.90625 2.32812 5.0625C2.48438 5.21875 2.67708 5.29688 2.90625 5.29688H4.5C4.75 5.29688 4.97917 5.38542 5.1875 5.5625C5.39583 5.73958 5.52083 5.95312 5.5625 6.20312L8.25 22.2344C8.35417 22.8802 8.66146 23.4167 9.17188 23.8438C9.68229 24.2708 10.2604 24.4844 10.9062 24.4844H26.9062C27.1146 24.4844 27.2969 24.4062 27.4531 24.25C27.6094 24.0938 27.6875 23.9115 27.6875 23.7031C27.6875 23.474 27.6094 23.2812 27.4531 23.125C27.2969 22.9688 27.1146 22.8906 26.9062 22.8906H10.9062C10.6562 22.8906 10.4219 22.8021 10.2031 22.625C9.98438 22.4479 9.85417 22.2344 9.8125 21.9844L9.4375 19.6094L25.375 18.2344C26 18.1719 26.5625 17.9115 27.0625 17.4531C27.5625 16.9948 27.8542 16.4635 27.9375 15.8594L29.0312 9.39062C29.0729 9.07812 29.0573 8.76562 28.9844 8.45312C28.9115 8.14062 28.7708 7.86979 28.5625 7.64062ZM27.4375 9.14062L26.375 15.5781C26.3333 15.8281 26.1979 16.0625 25.9688 16.2812C25.7396 16.5 25.5 16.6198 25.25 16.6406L9.15625 18.0156L7.5625 8.48438H26.9062C26.9896 8.48438 27.0729 8.5 27.1562 8.53125C27.2396 8.5625 27.3021 8.60938 27.3438 8.67188C27.3854 8.73438 27.4167 8.80208 27.4375 8.875C27.4583 8.94792 27.4583 9.03646 27.4375 9.14062Z" fill="white"/>
</svg>
