<svg width="33" height="33" viewBox="0 0 33 33" fill="none" xmlns="http://www.w3.org/2000/svg">
<path d="M15.4075 30.8906C15.345 30.8906 15.2825 30.8802 15.22 30.8594C15.1575 30.8385 15.095 30.8177 15.0325 30.7969C14.9908 30.776 14.7564 30.6354 14.3293 30.375C13.9023 30.1146 13.345 29.7552 12.6575 29.2969C11.97 28.8385 11.1939 28.2865 10.3293 27.6406C9.46476 26.9948 8.58455 26.2552 7.68872 25.4219C6.60539 24.4635 5.64185 23.4896 4.7981 22.5C3.95435 21.5104 3.21997 20.526 2.59497 19.5469C1.8033 18.2969 1.20955 17.0469 0.813721 15.7969C0.417887 14.5469 0.219971 13.3073 0.219971 12.0781C0.219971 10.9323 0.438721 9.84896 0.876221 8.82812C1.31372 7.80729 1.91268 6.91667 2.6731 6.15625C3.43351 5.39583 4.32414 4.79688 5.34497 4.35938C6.3658 3.92188 7.45955 3.70312 8.62622 3.70312C9.39705 3.70312 10.1887 3.84375 11.0012 4.125C11.8137 4.40625 12.5846 4.81771 13.3137 5.35938C13.7304 5.67188 14.121 6.01042 14.4856 6.375C14.8502 6.73958 15.1575 7.11979 15.4075 7.51562C15.6783 7.11979 15.996 6.73958 16.3606 6.375C16.7252 6.01042 17.1158 5.67188 17.5325 5.35938C18.2616 4.81771 19.0273 4.40625 19.8293 4.125C20.6314 3.84375 21.4283 3.70312 22.22 3.70312C23.3866 3.70312 24.4752 3.92188 25.4856 4.35938C26.496 4.79688 27.3814 5.39583 28.1418 6.15625C28.9023 6.91667 29.5064 7.80729 29.9543 8.82812C30.4023 9.84896 30.6262 10.9323 30.6262 12.0781C30.6262 13.3073 30.4283 14.5469 30.0325 15.7969C29.6366 17.0469 29.0429 18.2969 28.2512 19.5469C27.6262 20.526 26.8866 21.5104 26.0325 22.5C25.1783 23.4896 24.22 24.4635 23.1575 25.4219C22.2408 26.2552 21.3502 26.9948 20.4856 27.6406C19.621 28.2865 18.8502 28.8385 18.1731 29.2969C17.496 29.7552 16.9439 30.1146 16.5168 30.375C16.0898 30.6354 15.8554 30.776 15.8137 30.7969C15.7512 30.8177 15.6887 30.8385 15.6262 30.8594C15.5637 30.8802 15.4908 30.8906 15.4075 30.8906ZM8.62622 5.29688C7.68872 5.29688 6.80851 5.47396 5.9856 5.82812C5.16268 6.18229 4.43872 6.66667 3.81372 7.28125C3.18872 7.89583 2.69914 8.61458 2.34497 9.4375C1.9908 10.2604 1.81372 11.1406 1.81372 12.0781C1.81372 13.3073 2.02726 14.4948 2.45435 15.6406C2.88143 16.7865 3.4283 17.875 4.09497 18.9062C4.76164 19.9375 5.50643 20.9062 6.32935 21.8125C7.15226 22.7188 7.94914 23.526 8.71997 24.2344C10.1366 25.5052 11.4804 26.5677 12.7512 27.4219C14.0221 28.276 14.9075 28.8594 15.4075 29.1719C15.9283 28.8594 16.8241 28.276 18.095 27.4219C19.3658 26.5677 20.6991 25.5052 22.095 24.2344C22.8866 23.526 23.6939 22.7188 24.5168 21.8125C25.3398 20.9062 26.0846 19.9375 26.7512 18.9062C27.4179 17.875 27.9648 16.7865 28.3918 15.6406C28.8189 14.4948 29.0325 13.3073 29.0325 12.0781C29.0325 11.1406 28.8502 10.2604 28.4856 9.4375C28.121 8.61458 27.6314 7.89583 27.0168 7.28125C26.4023 6.66667 25.6835 6.18229 24.8606 5.82812C24.0377 5.47396 23.1575 5.29688 22.22 5.29688C20.8658 5.29688 19.6054 5.75521 18.4387 6.67188C17.2721 7.58854 16.5221 8.54688 16.1887 9.54688C16.1262 9.71354 16.0273 9.84375 15.8918 9.9375C15.7564 10.0312 15.595 10.0781 15.4075 10.0781C15.2408 10.0781 15.0898 10.0312 14.9543 9.9375C14.8189 9.84375 14.72 9.71354 14.6575 9.54688C14.3241 8.54688 13.5741 7.58854 12.4075 6.67188C11.2408 5.75521 9.98039 5.29688 8.62622 5.29688Z" fill="white"/>
</svg>
